<svg width="16" height="16" viewBox="0 0 16 16" fill="none" xmlns="http://www.w3.org/2000/svg">
<g clip-path="url(#clip0_50_277)">
<path d="M12.3643 10.9971L15.7791 14.9994L14.6041 16L11.1985 12.0069C10.0969 12.7412 8.88216 13.1084 7.55415 13.1084C6.66678 13.1084 5.81767 12.9356 5.00682 12.5898C4.19598 12.244 3.49833 11.7789 2.91387 11.1945C2.32941 10.6101 1.86431 9.91241 1.51858 9.10154C1.17284 8.29068 0.999963 7.44157 0.999939 6.55421C0.999915 5.66686 1.17279 4.81775 1.51858 4.00689C1.86436 3.19602 2.32946 2.49836 2.91387 1.91393C3.49828 1.3295 4.19593 0.864399 5.00682 0.518639C5.81772 0.17288 6.66683 0 7.55415 0C8.44148 0 9.29059 0.17288 10.1015 0.518639C10.9124 0.864399 11.61 1.3295 12.1944 1.91393C12.7788 2.49836 13.2439 3.19602 13.5897 4.00689C13.9355 4.81775 14.1084 5.66686 14.1084 6.55421C14.1084 7.11723 14.038 7.668 13.8972 8.20653C13.7565 8.74506 13.5561 9.24688 13.296 9.71199C13.0359 10.1771 12.7253 10.6055 12.3642 10.9971H12.3643ZM7.55419 11.5662C8.23347 11.5662 8.88216 11.4331 9.50025 11.1669C10.1184 10.9007 10.6508 10.5442 11.0975 10.0975C11.5442 9.65075 11.9007 9.11834 12.1669 8.50024C12.4331 7.88214 12.5662 7.23346 12.5662 6.55418C12.5662 5.8749 12.4331 5.22621 12.1669 4.60812C11.9007 3.99002 11.5442 3.4576 11.0975 3.01085C10.6508 2.5641 10.1184 2.20763 9.50025 1.94144C8.88216 1.67524 8.23347 1.54215 7.55419 1.54215C6.87491 1.54215 6.22622 1.67524 5.60813 1.94144C4.99003 2.20763 4.45761 2.56411 4.01086 3.01088C3.56411 3.45766 3.20764 3.99007 2.94145 4.60812C2.67525 5.22616 2.54216 5.87485 2.54216 6.55418C2.54216 7.2335 2.67525 7.88219 2.94145 8.50024C3.20764 9.11829 3.56412 9.6507 4.0109 10.0975C4.45767 10.5442 4.99008 10.9007 5.60813 11.1669C6.22618 11.4331 6.87486 11.5662 7.55419 11.5662Z" fill="white"/>
</g>
<defs>
<clipPath id="clip0_50_277">
<rect width="16" height="16" fill="white"/>
</clipPath>
</defs>
</svg>
