<svg width="16" height="16" viewBox="0 0 16 16" fill="none" xmlns="http://www.w3.org/2000/svg">
<g clip-path="url(#clip0_50_242)">
<path fill-rule="evenodd" clip-rule="evenodd" d="M12.2728 11.4498L15.7134 15.4872L15.1166 16L11.6667 11.9627C10.4795 12.864 9.14302 13.3146 7.65738 13.3146C6.75605 13.3146 5.89358 13.139 5.06998 12.7878C4.24638 12.4366 3.53775 11.9642 2.9441 11.3706C2.35045 10.777 1.87803 10.0684 1.52686 9.24473C1.17568 8.4211 1.00009 7.55863 1.00006 6.65732C1.00004 5.75601 1.17564 4.89355 1.52686 4.06992C1.87808 3.2463 2.3505 2.53767 2.9441 1.94404C3.5377 1.35041 4.24633 0.877997 5.06998 0.526798C5.89363 0.1756 6.7561 0 7.65738 0C8.55867 0 9.42114 0.1756 10.2448 0.526798C11.0684 0.877997 11.7771 1.35041 12.3707 1.94404C12.9643 2.53767 13.4367 3.2463 13.7879 4.06992C14.1391 4.89355 14.3147 5.75601 14.3147 6.65732C14.3147 7.5835 14.1344 8.45996 13.7739 9.28669C13.4134 10.1134 12.913 10.8345 12.2728 11.4499L12.2728 11.4498ZM7.65746 12.5314C8.72038 12.5314 9.70251 12.2688 10.6038 11.7435C11.5052 11.2182 12.2185 10.5049 12.7437 9.60363C13.269 8.70232 13.5316 7.7202 13.5316 6.65725C13.5316 5.5943 13.269 4.61217 12.7437 3.71086C12.2184 2.80955 11.5051 2.09628 10.6038 1.57103C9.70256 1.04579 8.72043 0.783167 7.65746 0.783167C6.59449 0.783167 5.61236 1.04579 4.71107 1.57103C3.80979 2.09628 3.09651 2.80955 2.57124 3.71086C2.04597 4.61217 1.78335 5.5943 1.78337 6.65725C1.7834 7.7202 2.04602 8.70232 2.57124 9.60363C3.09646 10.5049 3.80974 11.2182 4.71107 11.7435C5.61241 12.2688 6.59454 12.5314 7.65746 12.5314Z" fill="#B2B2B2"/>
</g>
<defs>
<clipPath id="clip0_50_242">
<rect width="16" height="16" fill="white"/>
</clipPath>
</defs>
</svg>
